<svg xmlns="http://www.w3.org/2000/svg" viewBox="0 0 184.689 100"><path d="M158,14.466H26.692a16.047,16.047,0,0,0-16,16V69.534a16.047,16.047,0,0,0,16,16H158a16.047,16.047,0,0,0,16-16V30.466A16.047,16.047,0,0,0,158,14.466Zm.8,10.31a3.359,3.359,0,1,1-3.359,3.358A3.357,3.357,0,0,1,158.8,24.776Zm0,13.969A3.359,3.359,0,1,1,155.44,42.1,3.358,3.358,0,0,1,158.8,38.745ZM26.691,26.786a6.177,6.177,0,1,1-6.177,6.177A6.177,6.177,0,0,1,26.691,26.786Zm-7.263,33.04a3.359,3.359,0,1,1,3.359-3.358A3.358,3.358,0,0,1,19.428,59.826Zm7.263,7.253a3.359,3.359,0,1,1,3.358-3.359A3.359,3.359,0,0,1,26.691,67.079Zm0-13.97a3.359,3.359,0,1,1,3.358-3.358A3.359,3.359,0,0,1,26.691,53.109ZM33.8,59.826a3.359,3.359,0,1,1,3.358-3.358A3.359,3.359,0,0,1,33.8,59.826ZM139.22,76.966H43.958V24.776H139.22Zm9.108-41.579a3.359,3.359,0,1,1,3.358,3.358A3.358,3.358,0,0,1,148.328,35.387ZM158.8,65.068a6.177,6.177,0,1,1,6.177-6.177A6.177,6.177,0,0,1,158.8,65.068Zm7.263-26.323a3.359,3.359,0,1,1,3.358-3.358A3.359,3.359,0,0,1,166.062,38.745Z" fill="2E2E2E"/></svg>