<svg xmlns="http://www.w3.org/2000/svg" viewBox="0 0 100 100"><path d="M38.116,85.841a16.632,16.632,0,0,1-11.844-4.89L14.309,68.987c-.09-.089-.173-.181-.255-.276l-1.847-1.943,1.884-1.911L67.965,10.983l1.943,1.847c.112.1.206.181.3.273L82.163,25.06a16.79,16.79,0,0,1,0,23.689l-32.2,32.2A16.629,16.629,0,0,1,38.116,85.841Zm-18.2-19.029,10.248,10.25a11.289,11.289,0,0,0,15.91,0l32.2-32.2a11.289,11.289,0,0,0,0-15.91L68.025,18.7Zm48.9-31.052a3.044,3.044,0,1,0,0,4.306A3.044,3.044,0,0,0,68.812,35.76Zm-.063,10.176a3.044,3.044,0,1,0,0,4.305A3.044,3.044,0,0,0,68.749,45.936ZM58.576,46a3.044,3.044,0,1,0,0,4.306A3.044,3.044,0,0,0,58.576,46Zm.1-10.133a3.044,3.044,0,1,0,0,4.305A3.044,3.044,0,0,0,58.676,35.863ZM48.478,56.1a6.346,6.346,0,1,0,0,8.974A6.346,6.346,0,0,0,48.478,56.1Z" fill="#707676"/></svg>