<svg xmlns="http://www.w3.org/2000/svg" viewBox="0 0 100 100"><path d="M11.757,22.04V75.4H90.1V22.04ZM53.333,59.013a2.75,2.75,0,0,0,2.75-2.75c0-4.414,3.773-5.592,6-5.592A6.564,6.564,0,0,1,66.3,52.1a5.188,5.188,0,0,1,1.755,4.163V69.9H32.272V47.873c0-5.718,4.879-8.322,9.412-8.322a9.639,9.639,0,0,1,6.249,2.093,7.83,7.83,0,0,1,2.65,6.3v8.322A2.75,2.75,0,0,0,53.333,59.013ZM84.6,69.9H73.556V56.263a10.731,10.731,0,0,0-3.693-8.354,11.971,11.971,0,0,0-7.777-2.738A12.542,12.542,0,0,0,56.038,46.7a13.01,13.01,0,0,0-4.555-9.258,15.125,15.125,0,0,0-9.8-3.393c-7.229,0-14.912,4.845-14.912,13.822V69.9H17.257V27.54H84.6Z" fill="#0075FF"/></svg>