<svg xmlns="http://www.w3.org/2000/svg" viewBox="0 0 100 100"><path d="M59.765,57.536a5.611,5.611,0,0,1-.821,3.15,6.024,6.024,0,0,1-2.171,1.985A9.644,9.644,0,0,1,53.757,63.7a19.232,19.232,0,0,1-3.309.291H43.884V51.237h7.041a12.05,12.05,0,0,1,6.563,1.482A5.319,5.319,0,0,1,59.765,57.536Zm-6.22-11.09A7,7,0,0,0,55.9,45.388a5.194,5.194,0,0,0,1.588-1.8,5.473,5.473,0,0,0,.582-2.62,4.6,4.6,0,0,0-2.222-4.315,11.857,11.857,0,0,0-5.982-1.3H43.884V46.791h6.829A11.355,11.355,0,0,0,53.545,46.446ZM83.285,50A33.285,33.285,0,1,1,50,16.715,33.285,33.285,0,0,1,83.285,50ZM65.058,57.8a9.861,9.861,0,0,0-.609-3.547,8.167,8.167,0,0,0-1.72-2.752,8.707,8.707,0,0,0-2.647-1.88,10.89,10.89,0,0,0-3.335-.926V48.59a9.181,9.181,0,0,0,4.765-2.911,7.815,7.815,0,0,0,1.8-5.241,8.939,8.939,0,0,0-1.033-4.5,8.572,8.572,0,0,0-2.7-2.912A11.221,11.221,0,0,0,55.8,31.439a19.281,19.281,0,0,0-4.235-.475H38.644V68.44H50.978a21.8,21.8,0,0,0,5.478-.662,14.093,14.093,0,0,0,4.473-1.958A9.277,9.277,0,0,0,65.058,57.8Z" fill="2E2E2E"/></svg>