<svg xmlns="http://www.w3.org/2000/svg" viewBox="0 0 100 100"><path d="M83.285,52.4V46.9H73.1a23.155,23.155,0,0,0-4.83-11.633l7.208-7.209-3.888-3.888-7.209,7.208a23.155,23.155,0,0,0-11.633-4.83V16.361h-5.5V26.544a23.155,23.155,0,0,0-11.633,4.83l-7.209-7.208L24.52,28.054l7.208,7.209A23.155,23.155,0,0,0,26.9,46.9H16.715v5.5H26.9a23.157,23.157,0,0,0,4.829,11.633L24.52,71.237l3.888,3.889,7.209-7.209a23.146,23.146,0,0,0,11.633,4.83V82.931h5.5V72.747a23.146,23.146,0,0,0,11.633-4.83l7.209,7.209,3.888-3.889-7.208-7.208A23.157,23.157,0,0,0,73.1,52.4ZM50,67.415A17.77,17.77,0,1,1,67.77,49.646,17.79,17.79,0,0,1,50,67.415Z" fill="#707676"/></svg>